<svg xmlns="http://www.w3.org/2000/svg" viewBox="0 0 225 184.1"><style>.st2{fill:#e6e6e6}.st3{fill:#fff}.st7{fill:#4d4d4d}</style><g id="Lager_1"><path class="st2" d="M176 105.9v47.9l-41 23.4V82.9z"/><path class="st3" d="M135 82.9v94.3l-41-23.6-.1-47.3zM91 6.9v94.3L50 77.6V30.5z"/><path class="st2" d="M132 30.5l.1 47.3L91 101.2V6.9zM88 106v47.6l-41 23.6.1-94.4z"/><path class="st3" d="M6 153.6v-47.2l41.1-23.6-.1 94.4z"/><path d="M78.7 34.7h15.6c9.1 0 14.6 5.4 14.6 13.2v.1c0 8.9-6.9 13.4-15.5 13.4H87v11.5h-8.4V34.7h.1zM93.8 54c4.2 0 6.7-2.5 6.7-5.8v-.1c0-3.8-2.6-5.8-6.8-5.8h-6.5V54h6.6z" fill="#8156a7"/><path d="M43.3 109.7H51l16.4 38.5h-8.8l-3.5-8.6H38.9l-3.5 8.6h-8.6l16.5-38.5zm8.8 22.5L47 119.8l-5.1 12.4h10.2z" fill="#008ed5"/><path d="M116 110h9.1l10.1 16.2 10.1-16.2h9.1v38.3H146v-25l-10.8 16.3h-.2l-10.7-16.2v24.8H116V110z" fill="#e04f4a"/><path class="st3" d="M222 29.5v49l-41 23.8-1-97.2 42 24.4zM180 5.1l1 97.2-43-24.7-.3-48.5 42.3-24z"/><path class="st7" d="M222 78.5l-1.9 1.2 1.6 2.5 3.3-2v-3.6h-3z"/><path transform="rotate(-29.923 190.95 98.367)" class="st7" d="M187.8 96.9h6.4v3h-6.4z"/><path transform="rotate(-29.923 213.07 85.608)" class="st7" d="M209.9 84.1h6.4v3h-6.4z"/><path transform="rotate(-29.923 202.01 91.988)" class="st7" d="M198.8 90.5h6.4v3h-6.4z"/><path class="st7" d="M181.9 101.8l-.9.5-43-24.7V28.9l.9-.5-1.5-2.6-.7.4L91 0 44 27v50.6L0 103v54.1l47 27 44-25.3 44 25.3 47-27v-51.8l1.3-.8-1.4-2.7zM88 153.6l-41 23.6-41-23.6v-47.2l41-23.6 41 23.6v47.2zm-38-76V30.5L91 6.9l41 23.6v47.1l-41 23.6-41-23.6zm126 76l-41 23.6-41-23.6v-47.1l41-23.6 41 23.6v47.1z"/><path transform="rotate(-29.923 158.035 16.021)" class="st7" d="M154.8 14.5h6.4v3h-6.4z"/><path transform="rotate(-29.923 146.923 22.398)" class="st7" d="M143.7 20.9h6.4v3h-6.4z"/><path transform="rotate(-29.923 169.06 9.695)" class="st7" d="M165.9 8.2h6.4v3h-6.4z"/><path class="st7" d="M176.7 3.6l1.4 2.6 1.9-1.1 1.9 1.1 1.4-2.6-3.3-1.9z"/><path transform="rotate(-60.086 190.937 9.638)" class="st7" d="M189.4 6.4h3v6.4h-3z"/><path transform="rotate(-60.086 201.969 16.075)" class="st7" d="M200.5 12.9h3v6.4h-3z"/><path transform="rotate(-60.092 213.075 22.431)" class="st7" d="M211.6 19.2h3v6.4h-3z"/><path class="st7" d="M221.7 25.8l-1.6 2.6 1.9 1.1v2.1h3v-3.7zM222 38.6h3v6h-3zM222 50.6h3v6h-3zM222 62.6h3v6h-3z"/></g></svg>
