<?xml version="1.0" encoding="utf-8"?>
<!-- Generator: Adobe Illustrator 19.1.0, SVG Export Plug-In . SVG Version: 6.00 Build 0)  -->
<svg version="1.1" id="Lager_1" xmlns="http://www.w3.org/2000/svg" xmlns:xlink="http://www.w3.org/1999/xlink" x="0px" y="0px"
	 viewBox="0 0 225 184.1" style="enable-background:new 0 0 225 184.1;" xml:space="preserve">
<style type="text/css">
	.st0{fill:#4D4D4D;}
	.st1{fill:#E6E6E6;}
	.st2{fill:#8156A7;}
	.st3{fill:#008ED5;}
	.st4{fill:#E04F4A;}
</style>
<g>
	<polygon class="st0" points="222,78.5 220.1,79.7 221.7,82.2 225,80.2 225,76.6 222,76.6 	"/>
	
		<rect x="189.4" y="95.2" transform="matrix(-0.4988 -0.8667 0.8667 -0.4988 200.8888 312.8961)" class="st0" width="3" height="6.4"/>
	
		<rect x="211.6" y="82.4" transform="matrix(-0.4988 -0.8667 0.8667 -0.4988 245.1747 312.9927)" class="st0" width="3" height="6.4"/>
	
		<rect x="200.5" y="88.8" transform="matrix(-0.4988 -0.8667 0.8667 -0.4988 223.0327 312.9445)" class="st0" width="3" height="6.4"/>
	<path class="st0" d="M181.9,101.8l-0.9,0.5l-43-24.7V28.9l0.9-0.5l-1.5-2.6l-0.7,0.4L91,0L44,27v50.6L0,103v54.1l47,27l44-25.3
		l44,25.3l47-27v-51.8l1.3-0.8L181.9,101.8z M88,153.6l-41,23.6L6,153.6v-47.2l41-23.6l41,23.6V153.6z M50,77.6V30.5L91,6.9l41,23.6
		v47.1l-41,23.6L50,77.6z M176,153.6l-41,23.6l-41-23.6v-47.1l41-23.6l41,23.6V153.6z"/>
	
		<rect x="156.5" y="12.8" transform="matrix(0.4988 0.8667 -0.8667 0.4988 93.0907 -128.9024)" class="st0" width="3" height="6.4"/>
	
		<rect x="145.4" y="19.2" transform="matrix(0.4988 0.8667 -0.8667 0.4988 93.0625 -116.0979)" class="st0" width="3" height="6.4"/>
	<rect x="167.6" y="6.5" transform="matrix(0.4988 0.8667 -0.8667 0.4988 93.1189 -141.707)" class="st0" width="3" height="6.4"/>
	<polygon class="st0" points="176.7,3.6 178.1,6.2 180,5.1 181.9,6.2 183.3,3.6 180,1.7 	"/>
	
		<rect x="187.7" y="8.2" transform="matrix(-0.8668 -0.4987 0.4987 -0.8668 351.5732 113.251)" class="st0" width="6.4" height="3"/>
	
		<rect x="198.8" y="14.5" transform="matrix(-0.8668 -0.4987 0.4987 -0.8668 369.0852 130.6855)" class="st0" width="6.4" height="3"/>
	
		<rect x="209.9" y="20.9" transform="matrix(-0.8668 -0.4986 0.4986 -0.8668 386.6154 148.0984)" class="st0" width="6.4" height="3"/>
	<polygon class="st0" points="221.7,25.8 220.1,28.4 222,29.5 222,31.6 225,31.6 225,27.9 	"/>
	<rect x="222" y="38.6" class="st0" width="3" height="6"/>
	<rect x="222" y="50.6" class="st0" width="3" height="6"/>
	<rect x="222" y="62.6" class="st0" width="3" height="6"/>
</g>
<polygon class="st1" points="132,30.5 131.9,77.8 90.9,101.4 91.1,6.8 "/>
<polygon class="st1" points="176,106.5 175.9,153.8 134.9,177.4 135.1,82.8 "/>
<polygon class="st1" points="88,106.5 87.9,153.8 46.9,177.4 47.1,82.8 "/>
<g>
	<path class="st2" d="M78.7,34.7h15.6c9.1,0,14.6,5.4,14.6,13.2V48c0,8.9-6.9,13.4-15.5,13.4h-6.4v11.5h-8.4V34.7z M93.8,54
		c4.2,0,6.7-2.5,6.7-5.8v-0.1c0-3.8-2.6-5.8-6.8-5.8h-6.5V54H93.8z"/>
</g>
<g>
	<path class="st3" d="M43.3,109.7H51l16.4,38.5h-8.8l-3.5-8.6H38.9l-3.5,8.6h-8.6L43.3,109.7z M52.1,132.2L47,119.8l-5.1,12.4H52.1z
		"/>
</g>
<g>
	<path class="st4" d="M116,110h9.1l10.1,16.2l10.1-16.2h9.1v38.3h-8.4v-25l-10.8,16.3h-0.2l-10.7-16.2v24.8H116V110z"/>
</g>
</svg>
