<?xml version="1.0" standalone="no"?>
<!DOCTYPE svg PUBLIC "-//W3C//DTD SVG 20010904//EN"
 "http://www.w3.org/TR/2001/REC-SVG-20010904/DTD/svg10.dtd">
<svg version="1.0" xmlns="http://www.w3.org/2000/svg"
 width="736.000000pt" height="736.000000pt" viewBox="0 0 736.000000 736.000000"
 preserveAspectRatio="xMidYMid meet">
<metadata>
Created by potrace 1.11, written by Peter Selinger 2001-2013
</metadata>
<g transform="translate(0.000000,736.000000) scale(0.100000,-0.100000)"
fill="#000000" stroke="none">
<path d="M2749 6822 l-934 -537 -5 -1014 -5 -1015 -877 -505 -877 -506 2
-1084 2 -1083 938 -540 c653 -376 941 -537 950 -530 7 5 149 88 317 184 168
97 556 320 863 497 307 176 560 321 562 321 2 0 286 -163 632 -362 345 -199
740 -426 877 -505 l249 -143 936 539 936 539 2 1078 3 1079 -878 511 -877 510
-3 1012 -2 1012 -38 24 c-33 22 -1767 1017 -1818 1044 -18 10 -137 -56 -955
-526z m1233 91 c160 -93 525 -303 812 -468 l521 -300 2 -945 2 -945 -815 -469
c-702 -404 -818 -467 -837 -459 -12 6 -317 180 -677 388 -360 207 -719 414
-797 459 l-143 81 0 945 1 945 812 467 c447 257 816 468 820 468 5 0 139 -75
299 -167z m-1207 -3352 l780 -450 2 -948 2 -948 -815 -469 c-714 -410 -818
-467 -837 -458 -12 6 -380 217 -817 470 l-795 458 -3 946 -2 945 817 471 817
470 36 -18 c19 -10 386 -221 815 -469z m3490 11 l810 -467 0 -944 0 -943 -135
-78 c-971 -562 -1496 -860 -1507 -856 -31 12 -1619 930 -1625 940 -4 6 -7 431
-5 945 l2 934 810 468 c446 257 817 468 825 468 8 0 380 -210 825 -467z"/>
<path d="M3190 5210 l0 -760 165 0 165 0 2 228 3 227 215 6 c238 7 273 14 394
77 207 108 304 335 251 585 -40 190 -196 339 -400 382 -54 11 -153 15 -432 15
l-363 0 0 -760z m752 428 c79 -37 111 -87 116 -180 5 -85 -15 -145 -64 -188
-65 -57 -93 -63 -286 -68 l-178 -4 0 237 0 237 178 -4 c167 -3 180 -5 234 -30z"/>
<path d="M1777 2963 c-9 -15 -647 -1512 -647 -1517 0 -3 76 -6 168 -6 l168 0
15 43 c9 23 40 99 69 170 l52 127 326 -2 325 -3 68 -165 67 -165 177 -3 c97
-1 174 1 172 5 -3 5 -144 337 -315 739 -171 401 -316 742 -323 757 l-12 27
-153 0 c-84 0 -155 -3 -157 -7z m256 -645 c53 -131 97 -240 97 -243 0 -3 -90
-5 -200 -5 -153 0 -200 3 -200 13 0 22 194 487 200 479 4 -4 50 -114 103 -244z"/>
<path d="M4690 2200 l0 -760 160 0 160 0 2 493 3 492 209 -315 c115 -173 212
-319 217 -324 4 -5 104 136 221 314 l213 323 5 -494 5 -494 165 0 165 0 3 763
2 762 -183 0 -184 0 -199 -320 c-109 -176 -201 -320 -204 -320 -3 0 -95 144
-204 320 l-199 320 -179 0 -178 0 0 -760z"/>
</g>
</svg>
